<?xml version="1.0" encoding="UTF-8" standalone="no"?>
<svg width="619px" height="223px" viewBox="0 0 619 223" version="1.1" xmlns="http://www.w3.org/2000/svg" xmlns:xlink="http://www.w3.org/1999/xlink">
    <!-- Generator: Sketch 39.1 (31720) - http://www.bohemiancoding.com/sketch -->
    <title>logo-polished</title>
    <desc>Created with Sketch.</desc>
    <defs>
        <radialGradient cx="50%" cy="0%" fx="50%" fy="0%" r="100%" id="radialGradient-1">
            <stop stop-color="#20C6B7" offset="0%"></stop>
            <stop stop-color="#4D9ABF" offset="100%"></stop>
        </radialGradient>
        <linearGradient x1="67.0275807%" y1="84.7140915%" x2="67.027578%" y2="0%" id="linearGradient-2">
            <stop stop-color="#313D3E" offset="0%"></stop>
            <stop stop-color="#425253" offset="100%"></stop>
        </linearGradient>
    </defs>
    <g id="Press" stroke="none" stroke-width="1" fill="none" fill-rule="evenodd">
        <g id="press-v4" transform="translate(-411.000000, -128.000000)">
            <g id="hero-copy" transform="translate(0.000000, 76.000000)">
                <g id="polished">
                    <g id="logo" transform="translate(411.000000, 52.000000)">
                        <g id="logo-v1-01">
                            <g id="Layer_1">
                                <g id="Page-1_1_">
                                    <g id="logo">
                                        <g id="Page-1">
                                            <g id="logo-polished">
                                                <path d="M156.440066,78.9853864 C157.567562,79.54756 158.507142,80.2971248 159.258806,81.1403851 C159.352764,81.2340807 159.352764,81.2340807 159.446722,81.2340807 L159.54068,81.2340807 L181.15102,71.9582168 C181.244978,71.8645212 181.338936,71.7708256 181.338936,71.67713 C181.338936,71.5834345 181.338936,71.4897389 181.244978,71.3960433 L161.044008,51.2514904 C160.95005,51.1577948 160.856092,51.1577948 160.856092,51.1577948 L160.762134,51.1577948 C160.668176,51.1577948 160.574218,51.2514904 160.574218,51.4388816 L156.158192,78.7042997 C156.25215,78.7979953 156.346108,78.9853864 156.440066,78.9853864 Z M111.622101,60.7147454 C112.655639,62.3075706 113.313345,64.1814825 113.501261,66.0553944 C113.501261,66.1490899 113.595219,66.2427855 113.689177,66.3364811 L145.822813,80.1097336 L145.916771,80.1097336 C146.010729,80.1097336 146.104687,80.1097336 146.104687,80.016038 C147.044266,79.2664732 148.171762,78.7042997 149.393216,78.3295173 C149.487174,78.3295173 149.581132,78.2358217 149.581132,78.0484305 L154.84278,45.1612767 C154.84278,45.0675811 154.84278,44.9738855 154.748822,44.8801899 L134.641811,24.735637 C134.547853,24.6419414 134.547853,24.6419414 134.453895,24.6419414 C134.359937,24.6419414 134.265979,24.735637 134.265979,24.8293326 L111.622101,60.2462675 C111.528143,60.4336587 111.528143,60.6210499 111.622101,60.7147454 Z M221.365043,111.404062 L186.882458,76.9240834 C186.7885,76.8303878 186.694542,76.8303878 186.694542,76.8303878 L186.600584,76.8303878 L163.205042,86.8558164 C163.111084,86.949512 163.017126,87.0432076 163.017126,87.1369032 C163.017126,87.2305988 163.111084,87.41799 163.205042,87.41799 L220.895253,112.059931 L220.989211,112.059931 C221.083169,112.059931 221.177127,112.059931 221.177127,111.966236 L221.365043,111.778845 C221.552959,111.778845 221.552959,111.497758 221.365043,111.404062 Z M215.633605,117.025798 L160.292344,93.414508 L160.198386,93.414508 C160.104428,93.414508 160.01047,93.414508 159.916512,93.5082036 C158.413184,95.5695067 156.158192,96.8812451 153.527368,97.2560274 C153.43341,97.2560274 153.245494,97.349723 153.245494,97.5371142 L147.32614,134.172092 C147.32614,134.265787 147.32614,134.359483 147.420098,134.453179 C149.487174,136.046004 150.708628,138.388394 150.990502,141.01187 C150.990502,141.199261 151.08446,141.292957 151.272376,141.292957 L184.721424,148.320127 L184.815382,148.320127 C184.90934,148.320127 185.003298,148.320127 185.003298,148.226431 L215.633605,117.587972 C215.727563,117.494276 215.727563,117.40058 215.727563,117.306885 C215.727563,117.213189 215.727563,117.119494 215.633605,117.025798 Z M142.346367,85.7314693 L112.091891,72.8014772 L111.997933,72.8014772 C111.903975,72.8014772 111.810017,72.8951728 111.716059,72.9888684 C109.648983,76.1745186 106.172537,78.0484305 102.414218,78.0484305 C101.85047,78.0484305 101.286722,77.9547349 100.629016,77.8610393 L100.535058,77.8610393 C100.4411,77.8610393 100.347142,77.9547349 100.253184,78.0484305 L75.3543142,116.932102 C75.2603562,117.025798 75.2603562,117.213189 75.3543142,117.306885 C75.4482722,117.40058 75.5422302,117.40058 75.6361882,117.40058 L75.7301462,117.40058 L142.158451,88.8234239 C142.252409,88.7297283 142.346367,88.6360327 142.346367,88.5423371 L142.346367,88.1675547 L142.346367,87.6990768 C142.346367,87.1369032 142.440325,86.5747296 142.534283,86.1062516 C142.534283,85.9188605 142.440325,85.8251649 142.346367,85.7314693 Z M178.80207,153.754471 L149.393216,147.664257 L149.299258,147.664257 C149.2053,147.664257 149.111342,147.757953 149.017384,147.757953 C147.889888,149.163387 146.480519,150.287734 144.789275,150.943603 C144.695317,150.943603 144.601359,151.130994 144.601359,151.22469 L137.554509,194.886837 C137.554509,195.074228 137.648467,195.167924 137.742425,195.26162 L137.930341,195.26162 C138.024299,195.26162 138.118257,195.26162 138.118257,195.167924 L178.896028,154.41034 C178.989986,154.316645 178.989986,154.222949 178.989986,154.129253 C178.989986,153.848167 178.896028,153.754471 178.80207,153.754471 Z M137.742425,150.756212 C134.923685,149.631865 132.856609,147.102084 132.104945,144.19752 C132.104945,144.103825 132.010987,144.010129 131.823071,143.916434 L77.3274322,132.579267 C77.3274322,132.579267 77.3274322,132.579267 77.2334742,132.579267 C77.1395162,132.579267 77.0455582,132.672962 76.9516002,132.766658 C76.6697262,133.235136 76.4818102,133.609918 76.1999362,133.984701 C76.1059782,134.078396 76.1059782,134.265787 76.1999362,134.359483 L125.809759,206.692482 C125.903717,206.786178 125.903717,206.786178 125.997675,206.786178 C126.091633,206.786178 126.185591,206.786178 126.185591,206.692482 L129.192247,203.694223 C129.192247,203.600528 129.286205,203.600528 129.286205,203.506832 L137.742425,151.037299 C137.930341,151.037299 137.930341,150.849908 137.742425,150.756212 Z M78.4549281,125.926879 C78.4549281,126.114271 78.5488861,126.207966 78.7368021,126.207966 L132.762651,137.451438 L132.856609,137.451438 C132.950567,137.451438 133.044525,137.357742 133.138483,137.264046 C134.735769,134.453179 137.554509,132.579267 140.749081,132.391875 C140.936997,132.391875 141.030955,132.29818 141.030955,132.110789 L146.85635,96.0379847 C146.85635,95.9442891 146.85635,95.7568979 146.668434,95.7568979 C146.292603,95.4758111 145.916771,95.1947243 145.446981,94.7262464 C145.353023,94.6325508 145.259065,94.6325508 145.259065,94.6325508 L145.165107,94.6325508 L78.3609701,123.397098 C78.1730541,123.490794 78.1730541,123.58449 78.1730541,123.771881 C78.2670121,124.521446 78.4549281,125.177315 78.4549281,125.926879 Z M55.8110507,135.015352 C55.5291767,134.64057 55.2473027,134.265787 54.9654287,133.797309 C54.8714707,133.703614 54.7775127,133.609918 54.6835547,133.609918 L54.5895967,133.609918 L31.2880133,143.635347 C31.1940553,143.635347 31.1000973,143.729042 31.1000973,143.822738 C31.1000973,143.916434 31.1000973,144.010129 31.1940553,144.103825 L42.562973,155.440992 C42.656931,155.534687 42.750889,155.534687 42.750889,155.534687 C42.844847,155.534687 42.938805,155.440992 43.032763,155.347296 L55.9050087,135.202743 C55.9050087,135.202743 55.9050087,135.109048 55.8110507,135.015352 Z M71.2201623,138.66948 C71.1262043,138.575785 71.0322463,138.482089 70.9382883,138.482089 L70.8443303,138.482089 C69.1530863,139.231654 67.4618424,139.606436 65.6766404,139.606436 C64.2672705,139.606436 62.9518585,139.419045 61.5424885,138.950567 L61.4485305,138.950567 C61.3545725,138.950567 61.2606145,139.044263 61.1666565,139.137958 L47.6367049,160.313163 L47.5427469,160.406858 C47.4487889,160.500554 47.4487889,160.687945 47.5427469,160.781641 L109.742941,222.90182 C109.836899,222.995516 109.930857,222.995516 109.930857,222.995516 C110.024815,222.995516 110.118773,222.995516 110.118773,222.90182 L121.017901,211.939436 C121.111859,211.84574 121.111859,211.658349 121.017901,211.564653 L71.2201623,138.66948 Z M62.4820685,114.21493 C62.5760265,114.308626 62.6699845,114.402321 62.7639425,114.402321 L62.8579005,114.402321 C63.7974805,114.21493 64.8310185,114.027539 65.7705984,114.027539 C66.8041364,114.027539 67.9316324,114.21493 68.9651704,114.496017 L69.0591284,114.496017 C69.1530863,114.496017 69.2470443,114.402321 69.3410023,114.308626 L94.5217457,74.9564759 C94.6157037,74.8627803 94.6157037,74.6753891 94.5217457,74.5816935 C92.5486278,72.5203904 91.4211318,69.8032181 91.4211318,66.8986547 C91.4211318,66.0553944 91.5150898,65.212134 91.7030058,64.3688736 C91.7030058,64.1814825 91.6090478,64.0877869 91.5150898,63.9940913 C88.3205179,62.5886573 60.0391606,50.5956212 60.0391606,50.5019256 L59.9452026,50.5019256 C59.8512446,50.5019256 59.7572866,50.5019256 59.7572866,50.5956212 L35.7979971,74.5816935 C35.7040391,74.6753891 35.7040391,74.8627803 35.7979971,74.9564759 L62.4820685,114.21493 Z M65.2068504,45.6297547 C65.2068504,45.6297547 93.7700818,57.810182 94.9915357,58.3723556 L95.0854937,58.3723556 C95.1794517,58.3723556 95.1794517,58.3723556 95.2734097,58.27866 C97.2465277,56.6858349 99.7833936,55.7488789 102.32026,55.7488789 C103.541714,55.7488789 104.763167,55.9362701 105.984621,56.3110525 L106.078579,56.3110525 C106.172537,56.3110525 106.266495,56.2173569 106.360453,56.1236613 L129.568079,19.8634661 C129.662037,19.7697705 129.662037,19.5823793 129.568079,19.4886837 L110.306689,0.281086784 C110.212731,0.18739119 110.212731,0.18739119 110.118773,0.18739119 C110.024815,0.18739119 109.930857,0.18739119 109.930857,0.281086784 L65.2068504,45.0675811 C65.1128924,45.1612767 65.1128924,45.2549723 65.1128924,45.3486679 C65.0189344,45.5360591 65.1128924,45.5360591 65.2068504,45.6297547 Z M54.1198067,121.054709 C54.2137647,121.054709 54.3077227,120.961013 54.4016807,120.867317 C54.9654287,119.74297 55.8110507,118.712319 56.6566726,117.775363 C56.7506306,117.681667 56.7506306,117.494276 56.6566726,117.40058 C56.3747987,117.025798 30.9121813,79.9223424 30.9121813,79.8286468 C30.8182233,79.7349512 30.8182233,79.7349512 30.6303073,79.6412556 C30.5363493,79.6412556 30.4423913,79.6412556 30.4423913,79.7349512 L0.751663982,109.342759 C0.657705984,109.436455 0.657705984,109.53015 0.657705984,109.623846 C0.657705984,109.717542 0.751663982,109.811237 0.939579978,109.811237 L54.1198067,121.054709 C54.0258487,121.054709 54.0258487,121.054709 54.1198067,121.054709 Z M51.6768988,127.519705 C51.6768988,127.332313 51.5829408,127.238618 51.3950248,127.238618 L5.26164787,117.587972 C5.26164787,117.587972 5.26164787,117.587972 5.16768988,117.587972 C5.07373188,117.587972 4.97977388,117.681667 4.88581588,117.775363 C4.79185789,117.869058 4.88581588,118.056449 4.97977388,118.150145 L25.5565754,138.763176 C25.6505334,138.856872 25.7444914,138.856872 25.7444914,138.856872 L25.8384494,138.856872 L51.3950248,127.894487 C51.5829408,127.707096 51.6768988,127.6134 51.6768988,127.519705 Z" id="Combined-Shape" fill="url(#radialGradient-1)"></path>
                                                <path d="M450.058809,56.1236613 L465.092089,56.1236613 L465.092089,153.754471 L450.058809,153.754471 L450.058809,56.1236613 Z M296.249567,83.6701662 C288.169179,83.6701662 281.686077,86.7621208 276.706303,92.8523345 L276.236513,84.8882089 L262.142814,84.8882089 L262.142814,153.660776 L277.176093,153.660776 L277.176093,104.751675 C280.182749,99.1299393 284.692733,96.3190715 290.706045,96.3190715 C294.840197,96.3190715 297.846853,97.349723 299.726013,99.5047217 C301.605173,101.566025 302.450795,104.845371 302.450795,109.155368 L302.450795,153.660776 L317.484074,153.660776 L317.484074,108.218412 C317.296158,91.9153785 310.249309,83.6701662 296.249567,83.6701662 Z M361.174543,83.6701662 C355.443106,83.6701662 350.275416,85.1692957 345.577516,88.1675547 C340.879616,91.1658138 337.309212,95.3821155 334.678388,100.81646 C332.141522,106.250805 330.82611,112.341018 330.82611,119.180797 L330.82611,121.054709 C330.82611,131.267528 333.832766,139.512741 339.75212,145.69665 C345.671474,151.880559 353.37603,154.972514 362.959745,154.972514 C368.503267,154.972514 373.576999,153.848167 378.086983,151.599472 C382.596967,149.350778 386.167371,146.165128 388.798195,142.042522 L380.717807,134.078396 C376.395739,139.793827 370.758259,142.698391 363.899325,142.698391 C359.013509,142.698391 354.879358,141.01187 351.684786,137.732524 C348.396256,134.453179 346.611054,129.95579 346.141264,124.240359 L389.925691,124.240359 L389.925691,118.056449 C389.925691,107.094065 387.388825,98.6614614 382.503009,92.6649433 C377.335319,86.6684252 370.288469,83.6701662 361.174543,83.6701662 Z M374.892411,112.903192 L346.235222,112.903192 C346.892928,107.562543 348.584172,103.439937 351.121038,100.535373 C353.657904,97.5371142 357.040391,96.1316803 361.174543,96.1316803 C365.308695,96.1316803 368.597225,97.4434186 370.946175,100.066895 C373.295125,102.690372 374.610537,106.625587 374.986369,111.778845 L374.986369,112.903192 L374.892411,112.903192 Z M423.75057,140.449697 C422.717032,139.32535 422.247242,137.357742 422.247242,134.734265 L422.247242,96.3190715 L434.08595,96.3190715 L434.08595,84.8882089 L422.247242,84.8882089 L422.247242,68.210393 L407.213962,68.210393 L407.213962,84.8882089 L396.220877,84.8882089 L396.220877,96.3190715 L407.213962,96.3190715 L407.213962,135.296439 C407.213962,148.413822 413.039358,154.972514 424.596192,154.972514 C427.790764,154.972514 431.079294,154.504036 434.55574,153.473384 L434.55574,141.480348 C432.770538,141.948826 430.985336,142.136217 429.294092,142.136217 C426.56931,142.229913 424.784108,141.667739 423.75057,140.449697 Z M488.393672,84.9819045 L503.426952,84.9819045 L503.426952,153.754471 L488.393672,153.754471 L488.393672,84.9819045 Z M588.740814,131.642311 L574.553156,84.9819045 L558.298423,84.9819045 L581.88188,153.379689 L579.720846,159.282511 C578.59335,162.655553 577.090022,164.997942 575.116904,166.403376 C573.237744,167.80881 570.325046,168.558375 566.566726,168.558375 L563.747987,168.370984 L563.747987,180.36402 C566.37881,181.113585 568.821718,181.488367 570.982752,181.488367 C580.754384,181.488367 587.707276,175.67924 591.841428,164.154682 L618.525499,84.9819045 L602.458682,84.9819045 L588.740814,131.642311 Z M532.929763,60.9958322 C528.795611,65.1184384 526.728535,71.0212609 526.728535,78.7042997 L526.728535,84.9819045 L516.487114,84.9819045 L516.487114,96.4127671 L526.728535,96.4127671 L526.728535,153.754471 L541.761815,153.754471 L541.761815,96.4127671 L555.385725,96.4127671 L555.385725,84.9819045 L541.761815,84.9819045 L541.761815,78.8916908 C541.761815,71.3023477 545.332219,67.5545239 552.566985,67.5545239 C554.728019,67.5545239 556.701137,67.7419151 558.298423,68.0230018 L558.674255,55.9362701 C555.667599,55.1867054 552.942817,54.811923 550.218035,54.811923 C542.889311,54.7182274 537.063915,56.8732261 532.929763,60.9958322 Z M503.426952,54.7182274 L503.426952,68.210393 L488.393672,68.210393 L488.393672,54.7182274 L503.426952,54.7182274 Z" id="Combined-Shape" fill="url(#linearGradient-2)"></path>
                                            </g>
                                        </g>
                                    </g>
                                </g>
                            </g>
                        </g>
                    </g>
                </g>
            </g>
        </g>
    </g>
</svg>